<svg xmlns="http://www.w3.org/2000/svg" xmlns:xlink="http://www.w3.org/1999/xlink" width="1024" zoomAndPan="magnify" viewBox="0 0 768 767.999994" height="1024" preserveAspectRatio="xMidYMid meet" version="1.0"><defs><g/><clipPath id="2b11de0e26"><path d="M 148.628906 29.542969 L 378 29.542969 L 378 623.542969 L 148.628906 623.542969 Z M 148.628906 29.542969 " clip-rule="nonzero"/></clipPath><clipPath id="a87c397605"><path d="M 317 29.542969 L 488 29.542969 L 488 623.542969 L 317 623.542969 Z M 317 29.542969 " clip-rule="nonzero"/></clipPath><clipPath id="c89e6dccbc"><path d="M 355 399 L 539 399 L 539 623.542969 L 355 623.542969 Z M 355 399 " clip-rule="nonzero"/></clipPath><clipPath id="b7af3fb493"><path d="M 487 399 L 619.628906 399 L 619.628906 623.542969 L 487 623.542969 Z M 487 399 " clip-rule="nonzero"/></clipPath></defs><path fill="#cceeff" d="M 317.992188 102.933594 L 395.90625 262.617188 L 317.992188 492.109375 L 168.949219 492.109375 L 168.949219 102.933594 Z M 317.992188 102.933594 " fill-opacity="1" fill-rule="nonzero"/><path fill="#99ddff" d="M 317.992188 102.933594 L 466.988281 102.933594 L 466.988281 492.109375 L 317.992188 492.109375 Z M 317.992188 102.933594 " fill-opacity="1" fill-rule="nonzero"/><g clip-path="url(#2b11de0e26)"><path fill="#705c99" d="M 317.992188 116.835938 L 359.152344 59.878906 L 317.992188 29.941406 L 197.417969 29.941406 C 170.492188 29.941406 148.582031 51.835938 148.582031 78.75 L 148.582031 574.335938 C 148.582031 601.25 170.492188 623.148438 197.417969 623.148438 L 317.992188 623.148438 L 377.054688 545.265625 L 317.992188 478.320312 L 183.359375 478.320312 L 183.359375 116.835938 Z M 317.992188 116.835938 " fill-opacity="1" fill-rule="nonzero"/></g><g clip-path="url(#a87c397605)"><path fill="#493373" d="M 487.402344 78.75 L 487.402344 555.730469 L 372.640625 623.148438 L 317.992188 623.148438 L 317.992188 478.320312 L 452.625 478.320312 L 452.625 116.835938 L 317.992188 116.835938 L 317.992188 29.941406 L 438.566406 29.941406 C 465.496094 29.941406 487.402344 51.835938 487.402344 78.75 Z M 487.402344 78.75 " fill-opacity="1" fill-rule="nonzero"/></g><path fill="#e6eef2" d="M 317.992188 529.300781 L 333.078125 546.679688 L 317.992188 564.058594 L 277.90625 564.058594 C 268.308594 564.058594 260.515625 556.273438 260.515625 546.679688 C 260.515625 537.085938 268.308594 529.300781 277.90625 529.300781 Z M 317.992188 529.300781 " fill-opacity="1" fill-rule="nonzero"/><path fill="#b9ced9" d="M 375.722656 546.679688 C 375.722656 556.273438 367.933594 564.058594 358.332031 564.058594 L 317.992188 564.058594 L 317.992188 529.300781 L 358.332031 529.300781 C 367.933594 529.300781 375.722656 537.085938 375.722656 546.679688 Z M 375.722656 546.679688 " fill-opacity="1" fill-rule="nonzero"/><path fill="#e99a8b" d="M 317.992188 159.089844 L 338.503906 207.898438 L 317.992188 252.9375 C 292.105469 252.9375 271.042969 231.886719 271.042969 206.011719 C 271.042969 180.140625 292.105469 159.089844 317.992188 159.089844 Z M 317.992188 159.089844 " fill-opacity="1" fill-rule="nonzero"/><path fill="#c76e59" d="M 364.941406 206.011719 C 364.941406 231.851562 343.9375 252.878906 318.097656 252.9375 L 317.992188 252.9375 L 317.992188 159.089844 C 343.878906 159.089844 364.941406 180.140625 364.941406 206.011719 Z M 364.941406 206.011719 " fill-opacity="1" fill-rule="nonzero"/><path fill="#ff6699" d="M 317.992188 252.9375 L 360.832031 317.207031 L 317.992188 364.765625 L 247.453125 364.777344 C 238.269531 364.777344 230.828125 357.339844 230.828125 348.164062 L 230.828125 339.3125 C 230.828125 291.4375 270 252.53125 317.992188 252.9375 Z M 317.992188 252.9375 " fill-opacity="1" fill-rule="nonzero"/><path fill="#e62e6b" d="M 403.671875 340.410156 L 403.671875 349.273438 C 403.753906 357.871094 396.367188 364.777344 387.789062 364.753906 L 317.992188 364.765625 L 317.992188 252.9375 C 365.605469 253.335938 403.675781 292.828125 403.671875 340.410156 Z M 403.671875 340.410156 " fill-opacity="1" fill-rule="nonzero"/><path fill="#e6eef2" d="M 487.402344 262.820312 L 504.792969 286.230469 L 487.402344 297.578125 C 448.40625 297.578125 416.691406 329.277344 416.691406 368.253906 L 416.691406 427.179688 L 381.914062 427.179688 L 381.914062 368.253906 C 381.914062 310.113281 429.234375 262.820312 487.402344 262.820312 Z M 487.402344 262.820312 " fill-opacity="1" fill-rule="nonzero"/><path fill="#b9ced9" d="M 592.894531 368.253906 L 592.894531 427.179688 L 558.117188 427.179688 L 558.117188 368.253906 C 558.117188 329.277344 526.402344 297.578125 487.402344 297.578125 L 487.402344 262.820312 C 545.574219 262.820312 592.894531 310.113281 592.894531 368.253906 Z M 592.894531 368.253906 " fill-opacity="1" fill-rule="nonzero"/><g clip-path="url(#c89e6dccbc)"><path fill="#ffc34d" d="M 487.402344 399.535156 L 538.148438 511.339844 L 487.402344 623.148438 L 372.640625 623.148438 C 363.039062 623.148438 355.25 615.359375 355.25 605.765625 L 355.25 416.914062 C 355.25 407.320312 363.039062 399.535156 372.640625 399.535156 Z M 487.402344 399.535156 " fill-opacity="1" fill-rule="nonzero"/></g><g clip-path="url(#b7af3fb493)"><path fill="#ff9933" d="M 619.558594 416.914062 L 619.558594 605.765625 C 619.558594 615.359375 611.765625 623.148438 602.167969 623.148438 L 487.402344 623.148438 L 487.402344 399.535156 L 602.167969 399.535156 C 611.765625 399.535156 619.558594 407.320312 619.558594 416.914062 Z M 619.558594 416.914062 " fill-opacity="1" fill-rule="nonzero"/></g><path fill="#705c99" d="M 487.402344 478.320312 L 497.945312 511.339844 L 487.402344 544.363281 C 477.804688 544.363281 470.015625 536.574219 470.015625 526.980469 L 470.015625 495.699219 C 470.015625 486.105469 477.804688 478.320312 487.402344 478.320312 Z M 487.402344 478.320312 " fill-opacity="1" fill-rule="nonzero"/><path fill="#493373" d="M 504.792969 495.699219 L 504.792969 526.980469 C 504.792969 536.574219 497.003906 544.363281 487.402344 544.363281 L 487.402344 478.320312 C 497.003906 478.320312 504.792969 486.105469 504.792969 495.699219 Z M 504.792969 495.699219 " fill-opacity="1" fill-rule="nonzero"/><g fill="#ffffff" fill-opacity="1"><g transform="translate(122.460467, 713.569007)"><g><path d="M 60.546875 -16.703125 L 24.375 -16.703125 L 17.46875 0 L -1 0 L 33.734375 -77.921875 L 51.53125 -77.921875 L 86.375 0 L 67.453125 0 Z M 54.875 -30.390625 L 42.515625 -60.21875 L 30.171875 -30.390625 Z M 54.875 -30.390625 "/></g></g></g><g fill="#ffffff" fill-opacity="1"><g transform="translate(207.712974, 713.569007)"><g><path d="M 36.953125 0.890625 C 30.578125 0.890625 24.847656 -0.425781 19.765625 -3.0625 C 14.679688 -5.695312 10.707031 -9.347656 7.84375 -14.015625 C 4.988281 -18.691406 3.5625 -24 3.5625 -29.9375 C 3.5625 -35.875 4.988281 -41.179688 7.84375 -45.859375 C 10.707031 -50.535156 14.679688 -54.191406 19.765625 -56.828125 C 24.847656 -59.460938 30.578125 -60.78125 36.953125 -60.78125 C 43.265625 -60.78125 48.773438 -59.460938 53.484375 -56.828125 C 58.191406 -54.191406 61.625 -50.425781 63.78125 -45.53125 L 50.3125 -38.296875 C 47.195312 -43.785156 42.707031 -46.53125 36.84375 -46.53125 C 32.3125 -46.53125 28.5625 -45.046875 25.59375 -42.078125 C 22.632812 -39.109375 21.15625 -35.0625 21.15625 -29.9375 C 21.15625 -24.820312 22.632812 -20.78125 25.59375 -17.8125 C 28.5625 -14.84375 32.3125 -13.359375 36.84375 -13.359375 C 42.78125 -13.359375 47.269531 -16.101562 50.3125 -21.59375 L 63.78125 -14.25 C 61.625 -9.5 58.191406 -5.785156 53.484375 -3.109375 C 48.773438 -0.441406 43.265625 0.890625 36.953125 0.890625 Z M 36.953125 0.890625 "/></g></g></g><g fill="#ffffff" fill-opacity="1"><g transform="translate(273.488742, 713.569007)"><g><path d="M 36.953125 0.890625 C 30.578125 0.890625 24.847656 -0.425781 19.765625 -3.0625 C 14.679688 -5.695312 10.707031 -9.347656 7.84375 -14.015625 C 4.988281 -18.691406 3.5625 -24 3.5625 -29.9375 C 3.5625 -35.875 4.988281 -41.179688 7.84375 -45.859375 C 10.707031 -50.535156 14.679688 -54.191406 19.765625 -56.828125 C 24.847656 -59.460938 30.578125 -60.78125 36.953125 -60.78125 C 43.265625 -60.78125 48.773438 -59.460938 53.484375 -56.828125 C 58.191406 -54.191406 61.625 -50.425781 63.78125 -45.53125 L 50.3125 -38.296875 C 47.195312 -43.785156 42.707031 -46.53125 36.84375 -46.53125 C 32.3125 -46.53125 28.5625 -45.046875 25.59375 -42.078125 C 22.632812 -39.109375 21.15625 -35.0625 21.15625 -29.9375 C 21.15625 -24.820312 22.632812 -20.78125 25.59375 -17.8125 C 28.5625 -14.84375 32.3125 -13.359375 36.84375 -13.359375 C 42.78125 -13.359375 47.269531 -16.101562 50.3125 -21.59375 L 63.78125 -14.25 C 61.625 -9.5 58.191406 -5.785156 53.484375 -3.109375 C 48.773438 -0.441406 43.265625 0.890625 36.953125 0.890625 Z M 36.953125 0.890625 "/></g></g></g><g fill="#ffffff" fill-opacity="1"><g transform="translate(339.26451, 713.569007)"><g><path d="M 36.515625 0.890625 C 30.203125 0.890625 24.539062 -0.425781 19.53125 -3.0625 C 14.519531 -5.695312 10.601562 -9.347656 7.78125 -14.015625 C 4.96875 -18.691406 3.5625 -24 3.5625 -29.9375 C 3.5625 -35.875 4.96875 -41.179688 7.78125 -45.859375 C 10.601562 -50.535156 14.519531 -54.191406 19.53125 -56.828125 C 24.539062 -59.460938 30.203125 -60.78125 36.515625 -60.78125 C 42.816406 -60.78125 48.453125 -59.460938 53.421875 -56.828125 C 58.398438 -54.191406 62.296875 -50.535156 65.109375 -45.859375 C 67.929688 -41.179688 69.34375 -35.875 69.34375 -29.9375 C 69.34375 -24 67.929688 -18.691406 65.109375 -14.015625 C 62.296875 -9.347656 58.398438 -5.695312 53.421875 -3.0625 C 48.453125 -0.425781 42.816406 0.890625 36.515625 0.890625 Z M 36.515625 -13.359375 C 40.960938 -13.359375 44.613281 -14.859375 47.46875 -17.859375 C 50.332031 -20.867188 51.765625 -24.894531 51.765625 -29.9375 C 51.765625 -34.988281 50.332031 -39.015625 47.46875 -42.015625 C 44.613281 -45.023438 40.960938 -46.53125 36.515625 -46.53125 C 32.054688 -46.53125 28.378906 -45.023438 25.484375 -42.015625 C 22.597656 -39.015625 21.15625 -34.988281 21.15625 -29.9375 C 21.15625 -24.894531 22.597656 -20.867188 25.484375 -17.859375 C 28.378906 -14.859375 32.054688 -13.359375 36.515625 -13.359375 Z M 36.515625 -13.359375 "/></g></g></g><g fill="#ffffff" fill-opacity="1"><g transform="translate(412.163203, 713.569007)"><g><path d="M 68.34375 -59.890625 L 68.34375 0 L 51.875 0 L 51.875 -7.125 C 49.570312 -4.53125 46.820312 -2.546875 43.625 -1.171875 C 40.4375 0.203125 36.988281 0.890625 33.28125 0.890625 C 25.414062 0.890625 19.179688 -1.367188 14.578125 -5.890625 C 9.984375 -10.421875 7.6875 -17.140625 7.6875 -26.046875 L 7.6875 -59.890625 L 25.046875 -59.890625 L 25.046875 -28.609375 C 25.046875 -18.960938 29.085938 -14.140625 37.171875 -14.140625 C 41.328125 -14.140625 44.664062 -15.492188 47.1875 -18.203125 C 49.71875 -20.910156 50.984375 -24.9375 50.984375 -30.28125 L 50.984375 -59.890625 Z M 68.34375 -59.890625 "/></g></g></g><g fill="#ffffff" fill-opacity="1"><g transform="translate(488.623338, 713.569007)"><g><path d="M 44.40625 -60.78125 C 51.832031 -60.78125 57.828125 -58.550781 62.390625 -54.09375 C 66.953125 -49.644531 69.234375 -43.039062 69.234375 -34.28125 L 69.234375 0 L 51.875 0 L 51.875 -31.609375 C 51.875 -36.359375 50.832031 -39.898438 48.75 -42.234375 C 46.675781 -44.578125 43.671875 -45.75 39.734375 -45.75 C 35.359375 -45.75 31.867188 -44.394531 29.265625 -41.6875 C 26.671875 -38.976562 25.375 -34.953125 25.375 -29.609375 L 25.375 0 L 8.015625 0 L 8.015625 -59.890625 L 24.59375 -59.890625 L 24.59375 -52.875 C 26.894531 -55.394531 29.753906 -57.34375 33.171875 -58.71875 C 36.585938 -60.09375 40.332031 -60.78125 44.40625 -60.78125 Z M 44.40625 -60.78125 "/></g></g></g><g fill="#ffffff" fill-opacity="1"><g transform="translate(565.528654, 713.569007)"><g><path d="M 46.640625 -2.890625 C 44.929688 -1.628906 42.832031 -0.679688 40.34375 -0.046875 C 37.863281 0.578125 35.25 0.890625 32.5 0.890625 C 25.375 0.890625 19.863281 -0.925781 15.96875 -4.5625 C 12.070312 -8.195312 10.125 -13.539062 10.125 -20.59375 L 10.125 -45.1875 L 0.890625 -45.1875 L 0.890625 -58.546875 L 10.125 -58.546875 L 10.125 -73.125 L 27.5 -73.125 L 27.5 -58.546875 L 42.40625 -58.546875 L 42.40625 -45.1875 L 27.5 -45.1875 L 27.5 -20.8125 C 27.5 -18.289062 28.144531 -16.34375 29.4375 -14.96875 C 30.738281 -13.59375 32.578125 -12.90625 34.953125 -12.90625 C 37.703125 -12.90625 40.039062 -13.648438 41.96875 -15.140625 Z M 46.640625 -2.890625 "/></g></g></g><g fill="#ffffff" fill-opacity="1"><g transform="translate(613.956102, 713.569007)"><g/></g></g></svg>